<svg width="65" height="27" viewBox="0 0 65 27" fill="none" xmlns="http://www.w3.org/2000/svg">
<path d="M55.3832 7.25829C53.4566 4.35498 50.9286 1.88152 47.962 0L42.3643 8.55492L41.9306 8.45861C35.7266 7.09386 29.2902 7.09386 23.0863 8.45861L22.6501 8.55492L17.0333 0C14.0691 1.88152 11.5458 4.35498 9.6216 7.25829C5.18849 13.9481 5.27716 20.9786 5.82111 24.8591H59.1741C59.7253 20.9786 59.8068 13.9505 55.3832 7.25829ZM19.8753 20.0413C18.8089 20.0413 17.9463 18.7846 17.9463 17.239C17.9463 15.6934 18.8089 14.4485 19.8753 14.4485C20.9416 14.4485 21.7995 15.7005 21.7995 17.2484C21.7995 18.7964 20.9368 20.0413 19.8753 20.0413ZM34.7393 18.7846L34.6722 18.8011C33.8192 19.0266 33.1171 19.6185 32.7624 20.4101L32.7409 20.4571C32.6929 20.537 32.6067 20.5863 32.5108 20.5887C32.4126 20.5887 32.3215 20.5417 32.2736 20.4571C32.2688 20.4407 32.2616 20.4242 32.252 20.4101C31.895 19.6162 31.1929 19.0242 30.3374 18.8011L30.2583 18.7799C30.1649 18.7377 30.1073 18.6461 30.1073 18.5451C30.1073 18.4981 30.1217 18.4534 30.1457 18.4135C30.1553 18.3947 30.1696 18.3783 30.1864 18.3642C31.1737 17.1051 33.014 16.8679 34.296 17.8357C34.5117 17.9977 34.7034 18.188 34.8663 18.4041C34.8927 18.4464 34.9047 18.4957 34.9071 18.5451C34.9071 18.6508 34.8424 18.7447 34.7417 18.7846H34.7393ZM45.1176 20.0413C44.0513 20.0413 43.1934 18.7846 43.1934 17.239C43.1934 15.6934 44.0561 14.4485 45.1176 14.4485C46.1792 14.4485 47.0466 15.7005 47.0466 17.2484C47.0466 18.7964 46.1839 20.0413 45.1176 20.0413Z" fill="#6A9512"/>
<path d="M62.1575 26.7383C63.2175 26.7383 64.0769 25.8959 64.0769 24.8567C64.0769 23.8176 63.2175 22.9752 62.1575 22.9752C61.0974 22.9752 60.2381 23.8176 60.2381 24.8567C60.2381 25.8959 61.0974 26.7383 62.1575 26.7383Z" fill="#6A9512"/>
<path d="M2.84013 26.7383C3.90019 26.7383 4.75955 25.8959 4.75955 24.8567C4.75955 23.8176 3.90019 22.9752 2.84013 22.9752C1.78007 22.9752 0.920715 23.8176 0.920715 24.8567C0.920715 25.8959 1.78007 26.7383 2.84013 26.7383Z" fill="#6A9512"/>
</svg>
